<?xml version="1.0" encoding="UTF-8"?>
<svg width="400" height="400" viewBox="0 0 400 400" fill="none" xmlns="http://www.w3.org/2000/svg">
    <!-- Background with subtle gradient -->
    <rect width="400" height="400" rx="16" fill="url(#paint0_linear)" />
    
    <!-- Card container -->
    <rect x="40" y="40" width="320" height="320" rx="12" fill="url(#paint1_linear)" fill-opacity="0.1" stroke="url(#paint2_linear)" stroke-opacity="0.2" />
    
    <!-- Logo placeholder -->
    <circle cx="200" cy="90" r="24" fill="url(#paint3_linear)" />
    <path d="M188 90a12 12 0 1124 0 12 12 0 01-24 0z" stroke="#fff" stroke-width="2"/>
    
    <!-- Form elements -->
    <rect x="80" y="140" width="240" height="36" rx="8" fill="white" fill-opacity="0.05" />
    <rect x="92" y="154" width="60" height="8" rx="4" fill="#60A5FA" fill-opacity="0.6" />
    
    <rect x="80" y="190" width="240" height="36" rx="8" fill="white" fill-opacity="0.05" />
    <rect x="92" y="204" width="80" height="8" rx="4" fill="#60A5FA" fill-opacity="0.6" />
    
    <rect x="80" y="240" width="240" height="36" rx="8" fill="white" fill-opacity="0.05" />
    <rect x="92" y="254" width="70" height="8" rx="4" fill="#60A5FA" fill-opacity="0.6" />
    
    <!-- Button outline (not filled) -->
    <rect x="80" y="300" width="240" height="40" rx="8" fill="white" fill-opacity="0.05" />
    
    <!-- Gradients -->
    <defs>
        <linearGradient id="paint0_linear" x1="0" y1="0" x2="400" y2="400" gradientUnits="userSpaceOnUse">
            <stop stop-color="#1E293B" />
            <stop offset="1" stop-color="#0F172A" />
        </linearGradient>
        
        <linearGradient id="paint1_linear" x1="40" y1="40" x2="360" y2="360" gradientUnits="userSpaceOnUse">
            <stop stop-color="#3B82F6" stop-opacity="0.1" />
            <stop offset="1" stop-color="#06B6D4" stop-opacity="0.1" />
        </linearGradient>
        
        <linearGradient id="paint2_linear" x1="40" y1="40" x2="360" y2="360" gradientUnits="userSpaceOnUse">
            <stop stop-color="#3B82F6" />
            <stop offset="1" stop-color="#06B6D4" />
        </linearGradient>
        
        <linearGradient id="paint3_linear" x1="176" y1="66" x2="224" y2="114" gradientUnits="userSpaceOnUse">
            <stop stop-color="#3B82F6" />
            <stop offset="1" stop-color="#06B6D4" />
        </linearGradient>
    </defs>
</svg> 